<svg xmlns:xlink="http://www.w3.org/1999/xlink" role="none" aria-hidden="true" class="global-footer__action-icon rtl-flip" xmlns="http://www.w3.org/2000/svg" width="24" height="24" viewBox="0 0 24 24" data-supported-dps="24x24" data-test-icon="question-medium"><defs><svg xmlns="http://www.w3.org/2000/svg" viewBox="0 0 24 24" class="rtl-flip" id="question-medium" aria-hidden="true" role="none" data-supported-dps="24x24" fill="#000000" fill-opacity="0.9">
  <path d="M12 2a10 10 0 1010 10A10 10 0 0012 2zm0 16.25A1.25 1.25 0 1113.25 17 1.25 1.25 0 0112 18.25zm1.41-5.46L13 13v1h-2v-2.21l1.49-.79C13.82 10.34 14 9.77 14 9.3c0-.78-.92-1.3-2.3-1.3A7.12 7.12 0 008 9.24V7a8 8 0 013.7-1c3 0 4.3 1.55 4.3 3.3a3.91 3.91 0 01-2.59 3.49z" fill-opacity="0.9"></path>
</svg></defs>
<!---->    

    <use href="#question-medium" width="24" height="24" stroke-opacity="0" stroke="#000000" fill-opacity="0" fill="#000000"></use>
</svg>